{
  "accessors": [
    {
      "bufferView": 2,
      "componentType": 5126,
      "count": 202,
      "max": [
        32.603923797607422,
        17.939476013183594,
        50.752498626708984
      ],
      "min": [
        -32.603923797607422,
        -16.215524673461914,
        0.065049000084400177
      ],
      "type": "VEC3"
    },
    {
      "bufferView": 2,
      "byteOffset": 2424,
      "componentType": 5126,
      "count": 202,
      "max": [
        0.99997615814208984,
        0.99643182754516602,
        0.99997413158416748
      ],
      "min": [
        -0.99997615814208984,
        -0.99062585830688477,
        -0.96352803707122803
      ],
      "type": "VEC3"
    },
    {
      "bufferView": 1,
      "componentType": 5126,
      "count": 202,
      "max": [
        0.93751400709152222,
        0.99121099710464478
      ],
      "min": [
        0.021973000839352608,
        -1.4999999621068127e-05
      ],
      "type": "VEC2"
    },
    {
      "bufferView": 0,
      "componentType": 5125,
      "count": 588,
      "max": [
        201
      ],
      "min": [
        0
      ],
      "type": "SCALAR"
    },
    {
      "bufferView": 2,
      "byteOffset": 4848,
      "componentType": 5126,
      "count": 10,
      "max": [
        18.446968078613281,
        0.15133899450302124,
        28.352603912353516
      ],
      "min": [
        -18.446968078613281,
        -13.02507495880127,
        18.470298767089844
      ],
      "type": "VEC3"
    },
    {
      "bufferView": 2,
      "byteOffset": 4968,
      "componentType": 5126,
      "count": 10,
      "max": [
        0.83679878711700439,
        0.031200539320707321,
        -0.23521979153156281
      ],
      "min": [
        -0.83679878711700439,
        -0.84210973978042603,
        -0.88891535997390747
      ],
      "type": "VEC3"
    },
    {
      "bufferView": 1,
      "byteOffset": 1616,
      "componentType": 5126,
      "count": 10,
      "max": [
        0.9687650203704834,
        1.3437550067901611
      ],
      "min": [
        -0.25000399351119995,
        -1.4999999621068127e-05
      ],
      "type": "VEC2"
    },
    {
      "bufferView": 0,
      "byteOffset": 2352,
      "componentType": 5125,
      "count": 24,
      "max": [
        9
      ],
      "min": [
        0
      ],
      "type": "SCALAR"
    },
    {
      "bufferView": 2,
      "byteOffset": 5088,
      "componentType": 5126,
      "count": 6,
      "max": [
        11.199939727783203,
        -12.366243362426758,
        39.55255126953125
      ],
      "min": [
        -11.199939727783203,
        -16.319173812866211,
        28.352603912353516
      ],
      "type": "VEC3"
    },
    {
      "bufferView": 2,
      "byteOffset": 5160,
      "componentType": 5126,
      "count": 6,
      "max": [
        0.51374322175979614,
        -0.82506942749023438,
        0.36429381370544434
      ],
      "min": [
        -0.51374322175979614,
        -0.97797626256942749,
        -0.23521979153156281
      ],
      "type": "VEC3"
    },
    {
      "bufferView": 1,
      "byteOffset": 1696,
      "componentType": 5126,
      "count": 6,
      "max": [
        1.0000150203704834,
        1
      ],
      "min": [
        0,
        -1.4999999621068127e-05
      ],
      "type": "VEC2"
    },
    {
      "bufferView": 0,
      "byteOffset": 2448,
      "componentType": 5125,
      "count": 12,
      "max": [
        5
      ],
      "min": [
        0
      ],
      "type": "SCALAR"
    },
    {
      "bufferView": 2,
      "byteOffset": 5232,
      "componentType": 5126,
      "count": 6,
      "max": [
        11.199939727783203,
        -10.389788627624512,
        29.011425018310547
      ],
      "min": [
        -11.199939727783203,
        -16.319173812866211,
        22.423219680786133
      ],
      "type": "VEC3"
    },
    {
      "bufferView": 2,
      "byteOffset": 5304,
      "componentType": 5126,
      "count": 6,
      "max": [
        0.51374322175979614,
        -0.65834438800811768,
        -0.20871627330780029
      ],
      "min": [
        -0.51374322175979614,
        -0.97797626256942749,
        -0.55403739213943481
      ],
      "type": "VEC3"
    },
    {
      "bufferView": 1,
      "byteOffset": 1744,
      "componentType": 5126,
      "count": 6,
      "max": [
        1.0000150203704834,
        1
      ],
      "min": [
        0,
        -1.4999999621068127e-05
      ],
      "type": "VEC2"
    },
    {
      "bufferView": 0,
      "byteOffset": 2496,
      "componentType": 5125,
      "count": 12,
      "max": [
        5
      ],
      "min": [
        0
      ],
      "type": "SCALAR"
    }
  ],
  "asset": {
    "extras": {
      "author": "ps1guy (https://sketchfab.com/funkoconno)",
      "license": "CC-BY-4.0 (http://creativecommons.org/licenses/by/4.0/)",
      "source": "https://sketchfab.com/3d-models/lowpoly-ps1-style-cartman-e914e306fc8441f1973f9716a6ba9356",
      "title": "LowPoly PS1 Style Cartman"
    },
    "generator": "Sketchfab-10.10.0",
    "version": "2.0"
  },
  "bufferViews": [
    {
      "buffer": 0,
      "byteLength": 2544,
      "byteOffset": 0,
      "name": "floatBufferViews",
      "target": 34963
    },
    {
      "buffer": 0,
      "byteLength": 1792,
      "byteOffset": 2544,
      "byteStride": 8,
      "name": "floatBufferViews",
      "target": 34962
    },
    {
      "buffer": 0,
      "byteLength": 5376,
      "byteOffset": 4336,
      "byteStride": 12,
      "name": "floatBufferViews",
      "target": 34962
    }
  ],
  "buffers": [
    {
      "byteLength": 9712,
      "uri": "scene.bin"
    }
  ],
  "images": [
    {
      "uri": "textures/cartman_body_baseColor.png"
    },
    {
      "uri": "textures/cartman_chin_baseColor.png"
    },
    {
      "uri": "textures/cartman_eyes_baseColor.png"
    },
    {
      "uri": "textures/cartman_mouth_baseColor.png"
    }
  ],
  "materials": [
    {
      "doubleSided": true,
      "emissiveFactor": [
        0,
        0,
        0
      ],
      "name": "cartman_body",
      "pbrMetallicRoughness": {
        "baseColorFactor": [
          1,
          1,
          1,
          1
        ],
        "baseColorTexture": {
          "index": 0,
          "texCoord": 0
        },
        "metallicFactor": 0,
        "roughnessFactor": 1
      }
    },
    {
      "doubleSided": true,
      "emissiveFactor": [
        0,
        0,
        0
      ],
      "name": "cartman_chin",
      "pbrMetallicRoughness": {
        "baseColorFactor": [
          1,
          1,
          1,
          1
        ],
        "baseColorTexture": {
          "index": 1,
          "texCoord": 0
        },
        "metallicFactor": 0,
        "roughnessFactor": 1
      }
    },
    {
      "doubleSided": true,
      "emissiveFactor": [
        0,
        0,
        0
      ],
      "name": "cartman_eyes",
      "pbrMetallicRoughness": {
        "baseColorFactor": [
          1,
          1,
          1,
          1
        ],
        "baseColorTexture": {
          "index": 2,
          "texCoord": 0
        },
        "metallicFactor": 0,
        "roughnessFactor": 1
      }
    },
    {
      "doubleSided": true,
      "emissiveFactor": [
        0,
        0,
        0
      ],
      "name": "cartman_mouth",
      "pbrMetallicRoughness": {
        "baseColorFactor": [
          1,
          1,
          1,
          1
        ],
        "baseColorTexture": {
          "index": 3,
          "texCoord": 0
        },
        "metallicFactor": 0,
        "roughnessFactor": 1
      }
    }
  ],
  "meshes": [
    {
      "primitives": [
        {
          "attributes": {
            "NORMAL": 1,
            "POSITION": 0,
            "TEXCOORD_0": 2
          },
          "indices": 3,
          "material": 0,
          "mode": 4
        }
      ]
    },
    {
      "primitives": [
        {
          "attributes": {
            "NORMAL": 5,
            "POSITION": 4,
            "TEXCOORD_0": 6
          },
          "indices": 7,
          "material": 1,
          "mode": 4
        }
      ]
    },
    {
      "primitives": [
        {
          "attributes": {
            "NORMAL": 9,
            "POSITION": 8,
            "TEXCOORD_0": 10
          },
          "indices": 11,
          "material": 2,
          "mode": 4
        }
      ]
    },
    {
      "primitives": [
        {
          "attributes": {
            "NORMAL": 13,
            "POSITION": 12,
            "TEXCOORD_0": 14
          },
          "indices": 15,
          "material": 3,
          "mode": 4
        }
      ]
    }
  ],
  "nodes": [
    {
      "children": [
        1
      ],
      "name": "RootNode (gltf orientation matrix)",
      "rotation": [
        -0.70710678118654746,
        -0,
        -0,
        0.70710678118654757
      ]
    },
    {
      "children": [
        2
      ],
      "name": "RootNode (model correction matrix)"
    },
    {
      "children": [
        3,
        4,
        5,
        6
      ],
      "name": "cartman.obj.cleaner.materialmerger.gles"
    },
    {
      "mesh": 0,
      "name": ""
    },
    {
      "mesh": 1,
      "name": ""
    },
    {
      "mesh": 2,
      "name": ""
    },
    {
      "mesh": 3,
      "name": ""
    }
  ],
  "samplers": [
    {
      "magFilter": 9729,
      "minFilter": 9987,
      "wrapS": 10497,
      "wrapT": 10497
    }
  ],
  "scene": 0,
  "scenes": [
    {
      "name": "OSG_Scene",
      "nodes": [
        0
      ]
    }
  ],
  "textures": [
    {
      "sampler": 0,
      "source": 0
    },
    {
      "sampler": 0,
      "source": 1
    },
    {
      "sampler": 0,
      "source": 2
    },
    {
      "sampler": 0,
      "source": 3
    }
  ]
}

